<?xml version="1.0" encoding="UTF-8" standalone="no" ?>
<!DOCTYPE svg PUBLIC "-//W3C//DTD SVG 1.1//EN" "http://www.w3.org/Graphics/SVG/1.1/DTD/svg11.dtd">
<svg xmlns="http://www.w3.org/2000/svg" xmlns:xlink="http://www.w3.org/1999/xlink" version="1.1" width="16" height="16" viewBox="0 0 512 512" xml:space="preserve">
    <g transform="matrix(1 0 0 1 0 0)" id="48eec20c-7921-40cb-87f8-4d7954c7f063">
        <path style="fill: rgb(255,255,255); fill-rule: nonzero; opacity: 1;" vector-effect="non-scaling-stroke" d="M 289.94 256 L 384.94 161 C 394.3288407471235 151.62772779537144 394.34227220462856 136.41884074712348 384.97 127.03 C 375.59772779537144 117.64115925287652 360.3888407471235 117.62772779537144 351 127 L 256 222 L 161 127 C 151.61115925287652 117.61115925287652 136.38884074712348 117.61115925287652 127 127 C 117.61115925287652 136.38884074712348 117.61115925287652 151.61115925287652 127 161 L 222 256 L 127 351 C 117.61115925287652 360.3888407471235 117.61115925287652 375.6111592528765 127 385 C 136.38884074712348 394.3888407471235 151.61115925287652 394.3888407471235 161 385 L 256 290 L 351 385 C 360.3888407471235 394.3888407471235 375.6111592528765 394.3888407471235 385 385 C 394.3888407471235 375.6111592528765 394.3888407471235 360.3888407471235 385 351 Z" stroke-linecap="round"/>
    </g>
</svg>
